# xmcd
#
# Track frame offsets:
#	150
#	19922
#	39727
#	59857
#
# Disc length: 1040 seconds
#
# Revision: 1
# Processed by: cddbd v1.5.1PL0 Copyright (c) Steve Scherf et al.
# Submitted via: CDex 1.50Beta5
#
DISCID=37040e04
DTITLE=PAPA B - SON SON SON SONG
DYEAR=1900
DGENRE=
TTITLE0=SON SON SON SONG
TTITLE1=PAPA B/son son son song
TTITLE2=PAPA B/son son son song
TTITLE3=PAPA B/son son son song
EXTD=
EXTT0=
EXTT1=
EXTT2=
EXTT3=
PLAYORDER=
